<svg width="800" height="420" viewBox="0 0 800 420" fill="none" xmlns="http://www.w3.org/2000/svg">
<path d="M702.892 146.4H703.892V148.4H675.492V146.4H676.492C677.559 146.4 678.492 146 679.292 145.2C680.092 144.4 680.759 143.467 681.292 142.4C681.959 141.333 682.426 140.2 682.692 139C682.959 137.667 683.092 136.467 683.092 135.4V23.8H659.892C657.759 23.8 655.892 24.2667 654.292 25.2C652.692 26.1334 651.359 27.3334 650.292 28.8C649.226 30.1334 648.426 31.6667 647.892 33.4C647.359 35 647.092 36.6 647.092 38.2H645.092V16.4H734.892V38.2H732.892C732.892 36.6 732.626 35 732.092 33.4C731.559 31.6667 730.759 30.1334 729.692 28.8C728.626 27.3334 727.292 26.1334 725.692 25.2C724.092 24.2667 722.226 23.8 720.092 23.8H696.492V135.4C696.492 136.467 696.626 137.667 696.892 139C697.159 140.2 697.559 141.333 698.092 142.4C698.759 143.467 699.426 144.4 700.092 145.2C700.892 146 701.826 146.4 702.892 146.4Z" fill="black"/>
<path d="M541.484 146.4H542.484V148.4H514.284V146.4H515.284C516.218 146.4 517.084 146 517.884 145.2C518.684 144.4 519.351 143.467 519.884 142.4C520.551 141.333 521.018 140.2 521.284 139C521.551 137.667 521.684 136.467 521.684 135.4V28.8C521.684 27.8667 521.551 26.8 521.284 25.6C521.018 24.4 520.551 23.2667 519.884 22.2C519.351 21.1334 518.684 20.2667 517.884 19.6C517.084 18.8 516.218 18.4 515.284 18.4H514.284V16.4H549.084C562.418 16.4 572.684 19 579.884 24.2C587.218 29.4 590.884 37.0667 590.884 47.2C590.884 52.2667 590.018 56.7334 588.284 60.6C586.684 64.3334 584.484 67.6 581.684 70.4C578.884 73.0667 575.551 75.2667 571.684 77C567.951 78.6 563.951 79.8 559.684 80.6L574.084 102.6C577.551 107.933 581.084 113.2 584.684 118.4C588.284 123.467 591.818 128.733 595.284 134.2C596.218 135.533 597.218 136.933 598.284 138.4C599.484 139.867 600.684 141.2 601.884 142.4C603.218 143.6 604.551 144.6 605.884 145.4C607.351 146.067 608.818 146.4 610.284 146.4V148.4H601.684C596.351 148.4 591.951 147.133 588.484 144.6C585.151 141.933 582.351 138.867 580.084 135.4C574.084 126.6 568.084 117.667 562.084 108.6C556.218 99.5334 550.351 90.6 544.484 81.8C543.018 81.6667 541.418 81.5334 539.684 81.4C538.084 81.1334 536.551 80.8667 535.084 80.6V135.4C535.084 136.467 535.218 137.667 535.484 139C535.751 140.2 536.151 141.333 536.684 142.4C537.351 143.467 538.018 144.4 538.684 145.2C539.484 146 540.418 146.4 541.484 146.4ZM535.084 23.2V74H536.084C537.151 74.1334 538.818 74.2667 541.084 74.4C543.484 74.4 546.418 74.4 549.884 74.4C552.684 74.4 555.618 74 558.684 73.2C561.884 72.2667 564.818 70.8 567.484 68.8C570.284 66.6667 572.551 63.9334 574.284 60.6C576.151 57.2667 577.084 53.0667 577.084 48C577.084 42.9334 576.084 38.8 574.084 35.6C572.218 32.4 569.551 29.8667 566.084 28C562.751 26.1333 558.684 24.8667 553.884 24.2C549.084 23.5333 543.818 23.2 538.084 23.2H535.084Z" fill="black"/>
<path d="M442.716 146.4H443.716C446.916 146.4 448.516 144.933 448.516 142C448.516 140.933 448.316 139.8 447.916 138.6L429.916 90H394.916L377.516 137.8C377.116 138.867 376.916 139.867 376.916 140.8C376.916 142.533 377.382 143.933 378.316 145C379.249 145.933 380.249 146.4 381.316 146.4H382.316V148.4H360.116V146.4H361.116C362.849 146.4 364.516 145.4 366.116 143.4C367.849 141.267 369.249 138.8 370.316 136L416.116 14L460.916 134.8C461.849 137.467 463.116 140.067 464.716 142.6C466.449 145.133 468.649 146.4 471.316 146.4H472.316V148.4H442.716V146.4ZM396.916 83.2H427.716L412.316 41.4L396.916 83.2Z" fill="black"/>
<path d="M288.447 146.4H289.447C290.38 146.4 291.247 146 292.047 145.2C292.847 144.4 293.513 143.467 294.047 142.4C294.713 141.333 295.18 140.2 295.447 139C295.713 137.667 295.847 136.467 295.847 135.4V30.2L244.247 150.6L195.247 36.4V135.4C195.247 136.467 195.38 137.667 195.647 139C195.913 140.2 196.313 141.333 196.847 142.4C197.513 143.467 198.247 144.4 199.047 145.2C199.847 146 200.78 146.4 201.847 146.4H202.847V148.4H181.047V146.4H182.047C182.98 146.4 183.847 146 184.647 145.2C185.447 144.4 186.113 143.467 186.647 142.4C187.18 141.333 187.58 140.2 187.847 139C188.113 137.667 188.247 136.467 188.247 135.4V28.8C188.247 27.8667 188.113 26.8 187.847 25.6C187.58 24.4 187.18 23.2667 186.647 22.2C186.113 21.1334 185.447 20.2667 184.647 19.6C183.847 18.8 182.98 18.4 182.047 18.4H181.047V16.4H201.447L247.847 125.8L294.247 16.4H316.847V18.4H315.847C314.78 18.4 313.847 18.8 313.047 19.6C312.247 20.2667 311.513 21.1334 310.847 22.2C310.313 23.2667 309.913 24.4 309.647 25.6C309.38 26.8 309.247 27.8667 309.247 28.8V135.4C309.247 136.467 309.38 137.667 309.647 139C309.913 140.2 310.313 141.333 310.847 142.4C311.513 143.467 312.247 144.4 313.047 145.2C313.847 146 314.78 146.4 315.847 146.4H316.847V148.4H288.447V146.4Z" fill="black"/>
<path d="M133.8 113C133.8 119.667 132.467 125.4 129.8 130.2C127.133 134.867 123.667 138.667 119.4 141.6C115.267 144.533 110.533 146.667 105.2 148C100 149.333 94.8 150 89.6 150C84.2667 150 79.6667 149.467 75.8 148.4C71.9333 147.333 68.4 146.333 65.2 145.4C63.0667 144.733 61.1333 144.2 59.4 143.8C57.6667 143.267 55.9333 143 54.2 143V120.2H56.2C56.2 125.267 57.4667 129.333 60 132.4C62.6667 135.333 65.7333 137.6 69.2 139.2C72.6667 140.8 76.1333 141.867 79.6 142.4C83.0667 142.8 85.6 143 87.2 143C92.9333 143 97.8667 142.2 102 140.6C106.133 138.867 109.533 136.667 112.2 134C114.867 131.2 116.8 128.133 118 124.8C119.333 121.467 120 118.067 120 114.6C120 110.2 119.067 106.533 117.2 103.6C115.333 100.533 112.867 97.8667 109.8 95.6C106.867 93.3334 103.467 91.4 99.6 89.8C95.7333 88.2 91.8 86.6 87.8 85C83.2667 83.2667 78.8 81.4667 74.4 79.6C70 77.7334 66.0667 75.4667 62.6 72.8C59.1333 70 56.3333 66.7334 54.2 63C52.0667 59.1334 51 54.4 51 48.8C51 42.9334 52.1333 37.8667 54.4 33.6C56.6667 29.2 59.6667 25.6 63.4 22.8C67.2667 20 71.6 17.9334 76.4 16.6C81.3333 15.1334 86.3333 14.4 91.4 14.4C94.8667 14.4 98.1333 14.6667 101.2 15.2C104.267 15.6 107.2 16.1334 110 16.8C112.267 17.3334 114.467 17.8 116.6 18.2C118.733 18.4667 120.8 18.6 122.8 18.6V39.2H120.8C120.533 32.2667 117.8 27.6 112.6 25.2C107.4 22.6667 100.2 21.4 91 21.4C85.6667 21.4 81.2667 22.3333 77.8 24.2C74.4667 25.9334 71.8 28.1334 69.8 30.8C67.8 33.3334 66.4 36.1334 65.6 39.2C64.9333 42.1334 64.6 44.7333 64.6 47C64.6 50.7334 65.4 53.9334 67 56.6C68.7333 59.2667 71 61.6 73.8 63.6C76.6 65.6 79.8 67.4 83.4 69C87.1333 70.6 91 72.1334 95 73.6C99.5333 75.3334 104.133 77.2 108.8 79.2C113.467 81.2 117.6 83.6667 121.2 86.6C124.933 89.5334 127.933 93.1334 130.2 97.4C132.6 101.667 133.8 106.867 133.8 113Z" fill="black"/>
<path d="M672.777 329.6H673.777C674.71 329.6 675.577 329.2 676.377 328.4C677.177 327.6 677.843 326.667 678.377 325.6C679.043 324.533 679.51 323.4 679.777 322.2C680.043 320.867 680.177 319.667 680.177 318.6V212C680.177 211.067 680.043 210 679.777 208.8C679.51 207.6 679.11 206.467 678.577 205.4C678.043 204.333 677.377 203.467 676.577 202.8C675.777 202 674.843 201.6 673.777 201.6H672.777V199.6H711.377C721.91 199.6 731.377 201.467 739.777 205.2C748.177 208.8 755.243 213.733 760.977 220C766.843 226.133 771.31 233.2 774.377 241.2C777.443 249.2 778.977 257.533 778.977 266.2C778.977 274.333 777.51 282.333 774.577 290.2C771.643 297.933 767.243 304.867 761.377 311C755.51 317.133 748.177 322.133 739.377 326C730.577 329.733 720.377 331.6 708.777 331.6H672.777V329.6ZM765.377 269.2C765.377 260.667 763.843 252.6 760.777 245C757.71 237.4 753.377 230.8 747.777 225.2C742.31 219.467 735.777 214.933 728.177 211.6C720.71 208.267 712.577 206.6 703.777 206.6H693.577V324.6H704.177C711.377 324.6 718.577 323.533 725.777 321.4C733.11 319.133 739.71 315.733 745.577 311.2C751.443 306.533 756.177 300.733 759.777 293.8C763.51 286.867 765.377 278.667 765.377 269.2Z" fill="black"/>
<path d="M550.008 329.6H551.008C552.074 329.6 553.008 329.267 553.808 328.6C554.608 327.8 555.274 326.867 555.808 325.8C556.474 324.733 556.941 323.6 557.208 322.4C557.608 321.2 557.808 320.067 557.808 319V212C557.808 211.067 557.608 210 557.208 208.8C556.941 207.6 556.474 206.467 555.808 205.4C555.274 204.333 554.608 203.467 553.808 202.8C553.008 202 552.074 201.6 551.008 201.6H550.008V199.6H578.808V201.6H577.808C576.741 201.6 575.808 202 575.008 202.8C574.208 203.467 573.541 204.333 573.008 205.4C572.474 206.467 572.008 207.6 571.608 208.8C571.341 210 571.208 211.067 571.208 212V324.2H615.008C617.541 324.2 619.741 323.6 621.608 322.4C623.474 321.2 625.008 319.733 626.208 318C627.541 316.133 628.474 314.2 629.008 312.2C629.674 310.067 630.008 308.133 630.008 306.4H632.008V331.6H550.008V329.6Z" fill="black"/>
<path d="M439.2 329.6H440.2V331.6H412V329.6H413C413.933 329.6 414.8 329.2 415.6 328.4C416.4 327.6 417.067 326.667 417.6 325.6C418.267 324.533 418.733 323.4 419 322.2C419.267 320.867 419.4 319.667 419.4 318.6V212C419.4 211.067 419.267 210 419 208.8C418.733 207.6 418.267 206.467 417.6 205.4C417.067 204.333 416.4 203.467 415.6 202.8C414.8 202 413.933 201.6 413 201.6H412V199.6H446.8C460.133 199.6 470.4 202.2 477.6 207.4C484.933 212.6 488.6 220.267 488.6 230.4C488.6 235.467 487.733 239.933 486 243.8C484.4 247.533 482.2 250.8 479.4 253.6C476.6 256.267 473.267 258.467 469.4 260.2C465.667 261.8 461.667 263 457.4 263.8L471.8 285.8C475.267 291.133 478.8 296.4 482.4 301.6C486 306.667 489.533 311.933 493 317.4C493.933 318.733 494.933 320.133 496 321.6C497.2 323.067 498.4 324.4 499.6 325.6C500.933 326.8 502.267 327.8 503.6 328.6C505.067 329.267 506.533 329.6 508 329.6V331.6H499.4C494.067 331.6 489.667 330.333 486.2 327.8C482.867 325.133 480.067 322.067 477.8 318.6C471.8 309.8 465.8 300.867 459.8 291.8C453.933 282.733 448.067 273.8 442.2 265C440.733 264.867 439.133 264.733 437.4 264.6C435.8 264.333 434.267 264.067 432.8 263.8V318.6C432.8 319.667 432.933 320.867 433.2 322.2C433.467 323.4 433.867 324.533 434.4 325.6C435.067 326.667 435.733 327.6 436.4 328.4C437.2 329.2 438.133 329.6 439.2 329.6ZM432.8 206.4V257.2H433.8C434.867 257.333 436.533 257.467 438.8 257.6C441.2 257.6 444.133 257.6 447.6 257.6C450.4 257.6 453.333 257.2 456.4 256.4C459.6 255.467 462.533 254 465.2 252C468 249.867 470.267 247.133 472 243.8C473.867 240.467 474.8 236.267 474.8 231.2C474.8 226.133 473.8 222 471.8 218.8C469.933 215.6 467.267 213.067 463.8 211.2C460.467 209.333 456.4 208.067 451.6 207.4C446.8 206.733 441.533 206.4 435.8 206.4H432.8Z" fill="black"/>
<path d="M177.2 201.6C174.533 201.6 172.267 202.733 170.4 205C168.533 207.267 167.267 209.733 166.6 212.4L130.2 332.4L99 234L67.8 332.6L31.2 212.6C30.5333 210.067 29.3333 207.6 27.6 205.2C26 202.8 24.1333 201.6 22 201.6V199.6H50.4V201.6C48.6667 201.6 47.2 202.333 46 203.8C44.9333 205.133 44.4 206.867 44.4 209C44.4 209.667 44.5333 210.533 44.8 211.6L70.8 296.4L102.6 198.4L133.2 296.2L159.6 211.6C159.6 211.333 159.667 210.8 159.8 210C160.067 209.067 160.2 208.333 160.2 207.8C160.2 205.933 159.667 204.467 158.6 203.4C157.533 202.2 156.467 201.6 155.4 201.6V199.6H177.2V201.6Z" fill="black"/>
<path d="M268.902 169.991C266.805 170.333 262.953 171.359 260.32 172.189C257.735 173.02 253.395 174.827 250.713 176.195C248.031 177.612 244.082 180.006 241.936 181.618C239.79 183.181 236.279 186.259 234.134 188.457C231.988 190.607 228.77 194.613 226.966 197.3C225.161 199.986 222.821 204.041 221.797 206.337C220.724 208.633 219.31 212.346 218.578 214.642C217.896 216.938 217.164 219.918 217.018 221.237L216.725 223.68C209.411 225.488 205.656 226.513 203.657 227.197C201.657 227.881 197.561 229.591 194.636 231.057C191.515 232.571 188.052 234.721 186.297 236.235C184.639 237.652 182.396 239.948 181.274 241.267C180.153 242.635 178.641 244.931 177.861 246.396C177.081 247.862 175.959 250.744 175.374 252.747C174.838 254.75 174.252 258.61 174.057 261.296C173.911 264.032 174.057 268.429 174.35 271.311C174.691 274.145 175.569 278.297 176.349 280.593C177.081 282.889 178.397 285.967 179.275 287.433C180.104 288.898 181.957 291.292 183.322 292.709C184.737 294.174 186.931 296.031 188.296 296.91C189.613 297.789 191.954 298.962 193.416 299.499C194.879 300.085 196.976 300.818 198.049 301.111C199.122 301.405 202.145 301.844 204.73 302.088C207.948 302.43 211.118 302.43 214.482 302.088C217.262 301.795 221.602 301.111 224.137 300.574C226.673 300.037 231.062 298.864 233.89 297.887C236.718 296.959 242.277 294.565 246.325 292.562C250.323 290.608 255.931 287.433 258.759 285.576C261.588 283.671 265.733 280.496 268.024 278.541C270.316 276.539 275.583 271.067 279.728 266.377C283.872 261.687 287.579 257.486 287.871 256.997C288.456 256.265 286.213 254.995 263.148 243.465C249.202 236.479 237.791 230.617 237.791 230.422C237.791 230.177 238.669 229.103 239.742 227.979C241.009 226.611 242.277 225.781 243.253 225.585C244.325 225.439 248.178 226.171 255.102 227.979C260.759 229.445 269 231.594 273.486 232.767L281.629 234.916C290.553 226.025 293.43 223.436 293.723 223.436C294.064 223.436 295.381 224.364 296.6 225.536C297.868 226.66 299.184 228.174 299.526 228.956C300.208 230.226 300.111 230.373 296.892 233.695C294.991 235.698 293.771 237.359 293.918 237.701C294.113 238.043 295.868 238.727 297.819 239.215C299.818 239.655 301.574 240.046 301.769 240.046C302.012 240.046 306.401 234.916 311.57 228.712C316.788 222.459 321.859 216.645 322.932 215.766C323.956 214.886 325.907 213.861 327.272 213.421C328.589 213.03 330.588 212.688 331.661 212.737C332.733 212.737 334.294 213.03 335.172 213.323C336.001 213.665 337.658 214.545 338.829 215.375C340.34 216.401 341.364 217.72 342.34 219.772C343.608 222.361 343.754 223.094 343.51 225.878C343.364 227.637 342.876 229.835 342.389 230.764C341.901 231.692 340.974 233.109 340.292 233.939C339.609 234.77 334.196 239.459 328.296 244.345C322.347 249.279 317.227 253.578 316.837 253.871C316.3 254.359 316.398 255.141 317.275 258.61C317.861 260.906 318.446 262.86 318.543 263.006C318.641 263.153 320.396 261.638 322.396 259.733C324.395 257.779 326.248 256.167 326.54 256.167C326.833 256.167 328.247 257.339 329.71 258.756C331.173 260.124 332.49 261.736 332.636 262.274C332.782 263.006 331.417 264.667 327.272 268.869C324.2 271.946 321.664 274.682 321.664 274.975C321.664 275.268 323.615 282.938 326.004 292.074C328.393 301.209 330.49 309.465 330.685 310.393C330.88 311.322 330.88 312.787 330.734 313.569C330.539 314.546 329.613 315.767 328.003 317.135L325.565 319.187L300.208 267.892C298.111 269.601 293.918 273.265 289.529 277.174C285.14 281.082 280.215 285.918 278.557 287.97C276.948 290.022 274.851 293.246 273.925 295.054C273.047 296.91 271.974 299.939 271.584 301.844C270.999 304.629 270.95 305.899 271.438 308.684C271.779 310.735 272.608 313.276 273.535 314.986C274.412 316.598 276.46 319.187 278.265 320.848C280.313 322.802 282.897 324.561 285.579 325.88C287.871 327.003 291.821 328.518 294.357 329.202C296.892 329.886 301.379 330.667 304.353 330.911C307.279 331.156 319.909 331.4 332.392 331.4C344.875 331.4 357.018 331.156 359.456 330.911C361.845 330.618 365.6 329.934 367.745 329.397C369.891 328.86 373.743 327.394 376.279 326.222C378.815 325 382.326 323.046 384.081 321.874C385.837 320.701 388.958 318.014 391.103 315.914C393.2 313.813 396.321 310.003 397.979 307.462C399.685 304.922 401.587 301.6 402.27 300.134C402.904 298.669 403.879 296.031 404.464 294.272C405.049 292.513 405.83 289.094 406.269 286.7C406.659 284.306 407 280.642 407 278.639C407 276.636 406.659 272.777 406.269 270.09C405.83 267.403 404.952 263.593 404.318 261.638C403.635 259.733 402.27 256.509 401.295 254.604L399.49 251.037C399.344 237.896 399.052 234.721 398.32 231.496C397.784 229.103 396.662 225.341 395.833 223.191C395.004 221.042 393.346 217.525 392.127 215.375C390.859 213.226 388.616 209.952 387.105 208.096C385.593 206.24 383.008 203.602 381.399 202.185C379.79 200.817 377.254 198.814 375.791 197.788C374.329 196.762 371.11 194.955 368.721 193.831C366.283 192.659 362.333 191.193 359.943 190.46C357.505 189.776 353.019 188.946 349.947 188.653C345.266 188.213 343.413 188.262 338.731 188.946C335.659 189.337 332.148 190.021 330.929 190.362L328.735 190.998C323.078 185.477 320.104 182.888 318.494 181.667C316.885 180.494 314.057 178.638 312.155 177.563C310.253 176.439 306.743 174.778 304.353 173.801C301.915 172.824 297.868 171.457 295.332 170.821C291.431 169.796 289.334 169.551 281.678 169.454C275.241 169.307 271.584 169.454 268.853 169.991H268.902Z" fill="url(#paint0_linear_2010_38)"/>
<path d="M98.6903 375.28V372.545H117.781V375.28H109.777V398H106.695V375.28H98.6903ZM129.538 398V372.545H138.139C140.128 372.545 141.76 372.885 143.036 373.565C144.312 374.236 145.257 375.16 145.87 376.336C146.483 377.513 146.79 378.851 146.79 380.351C146.79 381.851 146.483 383.181 145.87 384.341C145.257 385.501 144.316 386.412 143.049 387.075C141.781 387.73 140.161 388.057 138.189 388.057H131.229V385.273H138.09C139.448 385.273 140.542 385.074 141.371 384.676C142.208 384.278 142.813 383.715 143.185 382.986C143.567 382.248 143.757 381.37 143.757 380.351C143.757 379.332 143.567 378.441 143.185 377.679C142.804 376.916 142.195 376.328 141.358 375.914C140.522 375.491 139.415 375.28 138.04 375.28H132.621V398H129.538ZM141.52 386.565L147.784 398H144.205L138.04 386.565H141.52ZM159.97 398H156.739L166.085 372.545H169.267L178.614 398H175.382L167.776 376.572H167.577L159.97 398ZM161.163 388.057H174.189V390.791H161.163V388.057ZM188.23 372.545L195.787 393.973H196.085L203.642 372.545H206.873L197.527 398H194.345L184.998 372.545H188.23ZM217.838 398V372.545H233.2V375.28H220.921V383.881H232.405V386.615H220.921V395.266H233.399V398H217.838ZM245.756 398V372.545H248.839V395.266H260.671V398H245.756ZM296.099 398.348C294.425 398.348 292.983 398.041 291.773 397.428C290.564 396.815 289.631 395.974 288.977 394.905C288.322 393.836 287.995 392.614 287.995 391.239C287.995 390.178 288.219 389.238 288.666 388.417C289.122 387.589 289.747 386.822 290.543 386.118C291.347 385.405 292.27 384.693 293.314 383.98L296.993 381.246C297.714 380.773 298.29 380.268 298.721 379.729C299.16 379.191 299.38 378.487 299.38 377.616C299.38 376.97 299.094 376.345 298.522 375.74C297.959 375.135 297.217 374.832 296.297 374.832C295.651 374.832 295.079 374.998 294.582 375.33C294.093 375.653 293.708 376.067 293.426 376.572C293.153 377.07 293.016 377.583 293.016 378.114C293.016 378.71 293.178 379.315 293.501 379.928C293.832 380.533 294.251 381.155 294.756 381.793C295.27 382.422 295.8 383.069 296.347 383.732L308.03 398H304.501L294.856 386.366C293.961 385.289 293.149 384.312 292.42 383.433C291.69 382.555 291.11 381.689 290.68 380.836C290.249 379.982 290.033 379.058 290.033 378.064C290.033 376.92 290.286 375.918 290.791 375.056C291.305 374.186 292.022 373.511 292.942 373.03C293.87 372.541 294.955 372.297 296.198 372.297C297.474 372.297 298.572 372.545 299.492 373.043C300.411 373.531 301.12 374.182 301.617 374.994C302.114 375.798 302.363 376.672 302.363 377.616C302.363 378.835 302.06 379.891 301.455 380.786C300.851 381.681 300.026 382.513 298.982 383.284L293.911 387.062C292.768 387.908 291.993 388.728 291.587 389.523C291.181 390.319 290.978 390.891 290.978 391.239C290.978 392.034 291.185 392.776 291.599 393.463C292.014 394.151 292.598 394.706 293.352 395.129C294.106 395.551 294.988 395.763 295.999 395.763C296.96 395.763 297.897 395.56 298.808 395.154C299.72 394.739 300.544 394.143 301.281 393.364C302.027 392.585 302.615 391.649 303.046 390.555C303.485 389.461 303.705 388.231 303.705 386.864H306.539C306.539 388.554 306.344 389.934 305.955 391.002C305.565 392.071 305.126 392.908 304.637 393.513C304.148 394.118 303.755 394.57 303.456 394.868C303.357 394.992 303.266 395.116 303.183 395.241C303.1 395.365 303.009 395.489 302.91 395.614C302.089 396.533 301.054 397.221 299.802 397.677C298.551 398.124 297.317 398.348 296.099 398.348ZM334.127 375.28V372.545H353.218V375.28H345.214V398H342.131V375.28H334.127ZM385.393 385.273C385.393 387.957 384.908 390.277 383.938 392.233C382.969 394.188 381.639 395.696 379.949 396.757C378.258 397.818 376.328 398.348 374.157 398.348C371.986 398.348 370.055 397.818 368.365 396.757C366.675 395.696 365.345 394.188 364.375 392.233C363.406 390.277 362.921 387.957 362.921 385.273C362.921 382.588 363.406 380.268 364.375 378.312C365.345 376.357 366.675 374.849 368.365 373.788C370.055 372.728 371.986 372.197 374.157 372.197C376.328 372.197 378.258 372.728 379.949 373.788C381.639 374.849 382.969 376.357 383.938 378.312C384.908 380.268 385.393 382.588 385.393 385.273ZM382.41 385.273C382.41 383.069 382.041 381.208 381.304 379.692C380.574 378.176 379.584 377.028 378.333 376.249C377.09 375.47 375.698 375.081 374.157 375.081C372.616 375.081 371.219 375.47 369.968 376.249C368.725 377.028 367.735 378.176 366.998 379.692C366.269 381.208 365.904 383.069 365.904 385.273C365.904 387.477 366.269 389.337 366.998 390.853C367.735 392.37 368.725 393.517 369.968 394.296C371.219 395.075 372.616 395.464 374.157 395.464C375.698 395.464 377.09 395.075 378.333 394.296C379.584 393.517 380.574 392.37 381.304 390.853C382.041 389.337 382.41 387.477 382.41 385.273ZM414.28 372.545H417.362V389.399C417.362 391.139 416.952 392.693 416.132 394.06C415.32 395.419 414.172 396.492 412.689 397.279C411.206 398.058 409.466 398.447 407.469 398.447C405.472 398.447 403.732 398.058 402.249 397.279C400.766 396.492 399.614 395.419 398.794 394.06C397.982 392.693 397.576 391.139 397.576 389.399V372.545H400.658V389.151C400.658 390.393 400.931 391.5 401.478 392.469C402.025 393.43 402.804 394.188 403.815 394.744C404.834 395.29 406.052 395.564 407.469 395.564C408.886 395.564 410.104 395.29 411.123 394.744C412.142 394.188 412.921 393.43 413.46 392.469C414.007 391.5 414.28 390.393 414.28 389.151V372.545ZM430.518 398V372.545H439.119C441.107 372.545 442.74 372.885 444.016 373.565C445.292 374.236 446.236 375.16 446.85 376.336C447.463 377.513 447.769 378.851 447.769 380.351C447.769 381.851 447.463 383.181 446.85 384.341C446.236 385.501 445.296 386.412 444.028 387.075C442.76 387.73 441.141 388.057 439.169 388.057H432.208V385.273H439.069C440.428 385.273 441.522 385.074 442.35 384.676C443.187 384.278 443.792 383.715 444.165 382.986C444.546 382.248 444.737 381.37 444.737 380.351C444.737 379.332 444.546 378.441 444.165 377.679C443.784 376.916 443.175 376.328 442.338 375.914C441.501 375.491 440.395 375.28 439.019 375.28H433.6V398H430.518ZM442.499 386.565L448.764 398H445.184L439.019 386.565H442.499ZM473.826 378.909C473.677 377.65 473.072 376.672 472.011 375.976C470.951 375.28 469.65 374.932 468.109 374.932C466.982 374.932 465.996 375.114 465.151 375.479C464.314 375.843 463.659 376.345 463.187 376.983C462.723 377.621 462.491 378.346 462.491 379.158C462.491 379.837 462.652 380.421 462.976 380.91C463.307 381.391 463.73 381.793 464.243 382.116C464.757 382.431 465.296 382.692 465.859 382.899C466.423 383.098 466.94 383.259 467.413 383.384L469.998 384.08C470.661 384.254 471.398 384.494 472.21 384.8C473.031 385.107 473.814 385.525 474.559 386.056C475.313 386.578 475.935 387.249 476.424 388.069C476.913 388.89 477.157 389.896 477.157 391.089C477.157 392.465 476.797 393.708 476.076 394.818C475.363 395.929 474.319 396.811 472.944 397.466C471.576 398.12 469.915 398.447 467.96 398.447C466.137 398.447 464.558 398.153 463.224 397.565C461.898 396.977 460.854 396.156 460.092 395.104C459.338 394.052 458.911 392.83 458.812 391.438H461.994C462.077 392.399 462.4 393.194 462.963 393.824C463.535 394.445 464.256 394.909 465.126 395.216C466.004 395.514 466.949 395.663 467.96 395.663C469.136 395.663 470.193 395.473 471.129 395.092C472.065 394.702 472.807 394.164 473.354 393.476C473.901 392.78 474.174 391.968 474.174 391.04C474.174 390.195 473.938 389.507 473.466 388.977C472.993 388.446 472.372 388.015 471.601 387.684C470.831 387.353 469.998 387.062 469.103 386.814L465.971 385.919C463.982 385.347 462.408 384.531 461.248 383.471C460.088 382.41 459.508 381.022 459.508 379.307C459.508 377.882 459.893 376.639 460.664 375.578C461.443 374.509 462.487 373.681 463.796 373.092C465.113 372.496 466.584 372.197 468.208 372.197C469.849 372.197 471.307 372.492 472.583 373.08C473.859 373.66 474.87 374.455 475.616 375.466C476.37 376.477 476.768 377.625 476.809 378.909H473.826ZM519.989 378.909C519.84 377.65 519.235 376.672 518.175 375.976C517.114 375.28 515.813 374.932 514.272 374.932C513.145 374.932 512.159 375.114 511.314 375.479C510.477 375.843 509.822 376.345 509.35 376.983C508.886 377.621 508.654 378.346 508.654 379.158C508.654 379.837 508.816 380.421 509.139 380.91C509.47 381.391 509.893 381.793 510.406 382.116C510.92 382.431 511.459 382.692 512.022 382.899C512.586 383.098 513.104 383.259 513.576 383.384L516.161 384.08C516.824 384.254 517.561 384.494 518.373 384.8C519.194 385.107 519.977 385.525 520.722 386.056C521.477 386.578 522.098 387.249 522.587 388.069C523.076 388.89 523.32 389.896 523.32 391.089C523.32 392.465 522.96 393.708 522.239 394.818C521.526 395.929 520.482 396.811 519.107 397.466C517.74 398.12 516.078 398.447 514.123 398.447C512.3 398.447 510.721 398.153 509.387 397.565C508.061 396.977 507.017 396.156 506.255 395.104C505.501 394.052 505.074 392.83 504.975 391.438H508.157C508.24 392.399 508.563 393.194 509.126 393.824C509.698 394.445 510.419 394.909 511.289 395.216C512.167 395.514 513.112 395.663 514.123 395.663C515.299 395.663 516.356 395.473 517.292 395.092C518.228 394.702 518.97 394.164 519.517 393.476C520.064 392.78 520.337 391.968 520.337 391.04C520.337 390.195 520.101 389.507 519.629 388.977C519.156 388.446 518.535 388.015 517.764 387.684C516.994 387.353 516.161 387.062 515.266 386.814L512.134 385.919C510.145 385.347 508.571 384.531 507.411 383.471C506.251 382.41 505.671 381.022 505.671 379.307C505.671 377.882 506.056 376.639 506.827 375.578C507.606 374.509 508.65 373.681 509.959 373.092C511.276 372.496 512.747 372.197 514.371 372.197C516.012 372.197 517.47 372.492 518.746 373.08C520.022 373.66 521.033 374.455 521.779 375.466C522.533 376.477 522.931 377.625 522.972 378.909H519.989ZM543.243 398H535.388V372.545H543.591C546.06 372.545 548.173 373.055 549.93 374.074C551.687 375.085 553.033 376.539 553.969 378.437C554.906 380.326 555.374 382.588 555.374 385.223C555.374 387.875 554.902 390.157 553.957 392.071C553.012 393.977 551.637 395.444 549.831 396.471C548.024 397.49 545.828 398 543.243 398ZM538.47 395.266H543.044C545.149 395.266 546.893 394.86 548.277 394.048C549.661 393.236 550.692 392.08 551.372 390.58C552.051 389.08 552.391 387.295 552.391 385.223C552.391 383.168 552.055 381.399 551.384 379.916C550.713 378.424 549.71 377.281 548.376 376.485C547.042 375.682 545.381 375.28 543.392 375.28H538.47V395.266ZM587.729 372.545V398H584.746L570.875 378.014H570.627V398H567.544V372.545H570.527L584.448 392.581H584.696V372.545H587.729ZM617.741 398V372.545H626.64C628.413 372.545 629.875 372.852 631.027 373.465C632.179 374.07 633.037 374.886 633.6 375.914C634.163 376.933 634.445 378.064 634.445 379.307C634.445 380.401 634.25 381.304 633.861 382.016C633.48 382.729 632.974 383.292 632.345 383.707C631.723 384.121 631.048 384.428 630.319 384.626V384.875C631.098 384.925 631.881 385.198 632.668 385.695C633.455 386.192 634.114 386.905 634.644 387.833C635.174 388.761 635.439 389.896 635.439 391.239C635.439 392.515 635.149 393.662 634.569 394.681C633.989 395.701 633.074 396.509 631.823 397.105C630.571 397.702 628.943 398 626.938 398H617.741ZM620.823 395.266H626.938C628.952 395.266 630.381 394.876 631.226 394.097C632.079 393.31 632.506 392.357 632.506 391.239C632.506 390.377 632.287 389.581 631.847 388.852C631.408 388.115 630.783 387.527 629.971 387.087C629.159 386.64 628.198 386.416 627.087 386.416H620.823V395.266ZM620.823 383.732H626.54C627.468 383.732 628.305 383.549 629.051 383.185C629.805 382.82 630.402 382.306 630.841 381.643C631.288 380.981 631.512 380.202 631.512 379.307C631.512 378.188 631.122 377.239 630.344 376.461C629.565 375.673 628.33 375.28 626.64 375.28H620.823V383.732ZM647.504 398V372.545H650.587V383.881H664.159V372.545H667.241V398H664.159V386.615H650.587V398H647.504ZM688.268 398H680.412V372.545H688.616C691.085 372.545 693.198 373.055 694.954 374.074C696.711 375.085 698.057 376.539 698.994 378.437C699.93 380.326 700.398 382.588 700.398 385.223C700.398 387.875 699.926 390.157 698.981 392.071C698.037 393.977 696.661 395.444 694.855 396.471C693.049 397.49 690.853 398 688.268 398ZM683.495 395.266H688.069C690.173 395.266 691.918 394.86 693.301 394.048C694.685 393.236 695.717 392.08 696.396 390.58C697.076 389.08 697.415 387.295 697.415 385.223C697.415 383.168 697.08 381.399 696.409 379.916C695.737 378.424 694.735 377.281 693.401 376.485C692.067 375.682 690.405 375.28 688.417 375.28H683.495V395.266Z" fill="#555555"/>
<defs>
<linearGradient id="paint0_linear_2010_38" x1="290.5" y1="169.4" x2="290.5" y2="331.4" gradientUnits="userSpaceOnUse">
<stop stop-color="#FD943E"/>
<stop offset="1" stop-color="#FC8E4F"/>
</linearGradient>
</defs>
</svg>
